<svg width="25" height="24" viewBox="0 0 25 24" fill="none" xmlns="http://www.w3.org/2000/svg">
<path fill-rule="evenodd" clip-rule="evenodd" d="M12.7256 0C19.3531 0 24.7256 5.37259 24.7256 12C24.7256 18.6274 19.3531 24 12.7256 24C6.09824 24 0.725647 18.6274 0.725647 12C0.725647 5.37259 6.09824 0 12.7256 0Z" fill="url(#paint0_linear_17_562)"/>
<path d="M14.2849 23.8996V14.6306H16.898L17.2443 11.3683H14.2849L14.2893 9.73539C14.2893 8.88452 14.3701 8.42883 15.5922 8.42883H17.226V5.16602H14.6123C11.4728 5.16602 10.368 6.74848 10.368 9.41009V11.3686H8.41089V14.6311H10.368V23.7681C11.1304 23.92 11.9186 24.0003 12.7257 24.0003C13.247 24.0003 13.7678 23.9667 14.2849 23.8996Z" fill="white"/>
<defs>
<linearGradient id="paint0_linear_17_562" x1="12.7256" y1="-0.218652" x2="12.7256" y2="25.0234" gradientUnits="userSpaceOnUse">
<stop stop-color="#00B2FF"/>
<stop offset="1" stop-color="#006AFF"/>
</linearGradient>
</defs>
</svg>
