<svg width="25" height="24" viewBox="0 0 25 24" fill="none" xmlns="http://www.w3.org/2000/svg">
<g clip-path="url(#clip0_17_565)">
<path d="M8.7269 12C8.7269 9.79094 10.5172 7.99968 12.7263 7.99968C14.9353 7.99968 16.7266 9.79094 16.7266 12C16.7266 14.2091 14.9353 16.0003 12.7263 16.0003C10.5172 16.0003 8.7269 14.2091 8.7269 12ZM6.5644 12C6.5644 15.4032 9.32306 18.1619 12.7263 18.1619C16.1295 18.1619 18.8881 15.4032 18.8881 12C18.8881 8.5968 16.1295 5.83814 12.7263 5.83814C9.32306 5.83814 6.5644 8.5968 6.5644 12ZM17.692 5.59382C17.6919 5.87863 17.7763 6.15707 17.9344 6.39394C18.0925 6.63081 18.3174 6.81547 18.5805 6.92457C18.8435 7.03366 19.1331 7.06229 19.4124 7.00684C19.6918 6.95139 19.9484 6.81435 20.1499 6.61304C20.3513 6.41173 20.4886 6.15521 20.5443 5.8759C20.5999 5.59658 20.5715 5.30704 20.4627 5.04387C20.3538 4.7807 20.1693 4.55573 19.9325 4.3974C19.6958 4.23908 19.4174 4.15451 19.1326 4.1544H19.132C18.7503 4.15458 18.3842 4.30627 18.1142 4.57616C17.8442 4.84605 17.6924 5.21207 17.692 5.59382ZM7.87826 21.7677C6.7083 21.7144 6.0724 21.5196 5.64981 21.3549C5.08955 21.1368 4.68981 20.877 4.26952 20.4573C3.84923 20.0376 3.58907 19.6382 3.37192 19.078C3.20719 18.6556 3.01231 18.0195 2.95912 16.8495C2.90095 15.5846 2.88933 15.2047 2.88933 12.0001C2.88933 8.79552 2.90191 8.41661 2.95912 7.15066C3.0124 5.9807 3.20872 5.34586 3.37192 4.92221C3.59003 4.36195 3.84981 3.96221 4.26952 3.54192C4.68923 3.12163 5.08859 2.86147 5.64981 2.64432C6.07221 2.47958 6.7083 2.2847 7.87826 2.23152C9.14315 2.17334 9.52312 2.16173 12.7263 2.16173C15.9294 2.16173 16.3097 2.1743 17.5757 2.23152C18.7456 2.2848 19.3805 2.48112 19.8041 2.64432C20.3644 2.86147 20.7641 3.12221 21.1844 3.54192C21.6047 3.96163 21.8639 4.36195 22.082 4.92221C22.2468 5.34461 22.4416 5.9807 22.4948 7.15066C22.553 8.41661 22.5646 8.79552 22.5646 12.0001C22.5646 15.2047 22.553 15.5836 22.4948 16.8495C22.4416 18.0195 22.2457 18.6554 22.082 19.078C21.8639 19.6382 21.6041 20.038 21.1844 20.4573C20.7647 20.8766 20.3644 21.1368 19.8041 21.3549C19.3817 21.5196 18.7456 21.7145 17.5757 21.7677C16.3108 21.8259 15.9308 21.8375 12.7263 21.8375C9.52168 21.8375 9.14277 21.8259 7.87826 21.7677ZM7.7789 0.072672C6.50143 0.130848 5.6285 0.333408 4.86616 0.630048C4.07666 0.936384 3.40831 1.34736 2.74043 2.01418C2.07256 2.68099 1.66264 3.3504 1.35631 4.1399C1.05967 4.90272 0.857105 5.77517 0.798929 7.05264C0.739793 8.33213 0.726257 8.74118 0.726257 12C0.726257 15.2588 0.739793 15.6679 0.798929 16.9474C0.857105 18.2249 1.05967 19.0973 1.35631 19.8601C1.66264 20.6491 2.07266 21.3193 2.74043 21.9858C3.40821 22.6524 4.07666 23.0628 4.86616 23.37C5.62994 23.6666 6.50143 23.8692 7.7789 23.9273C9.05906 23.9855 9.46744 24 12.7263 24C15.9851 24 16.3941 23.9865 17.6736 23.9273C18.9512 23.8692 19.8235 23.6666 20.5864 23.37C21.3754 23.0628 22.0442 22.6526 22.7121 21.9858C23.38 21.319 23.789 20.6491 24.0962 19.8601C24.3928 19.0973 24.5964 18.2248 24.6536 16.9474C24.7118 15.6669 24.7253 15.2588 24.7253 12C24.7253 8.74118 24.7118 8.33213 24.6536 7.05264C24.5954 5.77507 24.3928 4.90224 24.0962 4.1399C23.789 3.35088 23.3789 2.68205 22.7121 2.01418C22.0453 1.3463 21.3754 0.936384 20.5873 0.630048C19.8235 0.333408 18.9511 0.129888 17.6746 0.072672C16.3951 0.014496 15.986 0 12.7272 0C9.4684 0 9.05906 0.013536 7.7789 0.072672Z" fill="url(#paint0_radial_17_565)"/>
<path d="M8.7269 12C8.7269 9.79094 10.5172 7.99968 12.7263 7.99968C14.9353 7.99968 16.7266 9.79094 16.7266 12C16.7266 14.2091 14.9353 16.0003 12.7263 16.0003C10.5172 16.0003 8.7269 14.2091 8.7269 12ZM6.5644 12C6.5644 15.4032 9.32306 18.1619 12.7263 18.1619C16.1295 18.1619 18.8881 15.4032 18.8881 12C18.8881 8.5968 16.1295 5.83814 12.7263 5.83814C9.32306 5.83814 6.5644 8.5968 6.5644 12ZM17.692 5.59382C17.6919 5.87863 17.7763 6.15707 17.9344 6.39394C18.0925 6.63081 18.3174 6.81547 18.5805 6.92457C18.8435 7.03366 19.1331 7.06229 19.4124 7.00684C19.6918 6.95139 19.9484 6.81435 20.1499 6.61304C20.3513 6.41173 20.4886 6.15521 20.5443 5.8759C20.5999 5.59658 20.5715 5.30704 20.4627 5.04387C20.3538 4.7807 20.1693 4.55573 19.9325 4.3974C19.6958 4.23908 19.4174 4.15451 19.1326 4.1544H19.132C18.7503 4.15458 18.3842 4.30627 18.1142 4.57616C17.8442 4.84605 17.6924 5.21207 17.692 5.59382ZM7.87826 21.7677C6.7083 21.7144 6.0724 21.5196 5.64981 21.3549C5.08955 21.1368 4.68981 20.877 4.26952 20.4573C3.84923 20.0376 3.58907 19.6382 3.37192 19.078C3.20719 18.6556 3.01231 18.0195 2.95912 16.8495C2.90095 15.5846 2.88933 15.2047 2.88933 12.0001C2.88933 8.79552 2.90191 8.41661 2.95912 7.15066C3.0124 5.9807 3.20872 5.34586 3.37192 4.92221C3.59003 4.36195 3.84981 3.96221 4.26952 3.54192C4.68923 3.12163 5.08859 2.86147 5.64981 2.64432C6.07221 2.47958 6.7083 2.2847 7.87826 2.23152C9.14315 2.17334 9.52312 2.16173 12.7263 2.16173C15.9294 2.16173 16.3097 2.1743 17.5757 2.23152C18.7456 2.2848 19.3805 2.48112 19.8041 2.64432C20.3644 2.86147 20.7641 3.12221 21.1844 3.54192C21.6047 3.96163 21.8639 4.36195 22.082 4.92221C22.2468 5.34461 22.4416 5.9807 22.4948 7.15066C22.553 8.41661 22.5646 8.79552 22.5646 12.0001C22.5646 15.2047 22.553 15.5836 22.4948 16.8495C22.4416 18.0195 22.2457 18.6554 22.082 19.078C21.8639 19.6382 21.6041 20.038 21.1844 20.4573C20.7647 20.8766 20.3644 21.1368 19.8041 21.3549C19.3817 21.5196 18.7456 21.7145 17.5757 21.7677C16.3108 21.8259 15.9308 21.8375 12.7263 21.8375C9.52168 21.8375 9.14277 21.8259 7.87826 21.7677ZM7.7789 0.072672C6.50143 0.130848 5.6285 0.333408 4.86616 0.630048C4.07666 0.936384 3.40831 1.34736 2.74043 2.01418C2.07256 2.68099 1.66264 3.3504 1.35631 4.1399C1.05967 4.90272 0.857105 5.77517 0.798929 7.05264C0.739793 8.33213 0.726257 8.74118 0.726257 12C0.726257 15.2588 0.739793 15.6679 0.798929 16.9474C0.857105 18.2249 1.05967 19.0973 1.35631 19.8601C1.66264 20.6491 2.07266 21.3193 2.74043 21.9858C3.40821 22.6524 4.07666 23.0628 4.86616 23.37C5.62994 23.6666 6.50143 23.8692 7.7789 23.9273C9.05906 23.9855 9.46744 24 12.7263 24C15.9851 24 16.3941 23.9865 17.6736 23.9273C18.9512 23.8692 19.8235 23.6666 20.5864 23.37C21.3754 23.0628 22.0442 22.6526 22.7121 21.9858C23.38 21.319 23.789 20.6491 24.0962 19.8601C24.3928 19.0973 24.5964 18.2248 24.6536 16.9474C24.7118 15.6669 24.7253 15.2588 24.7253 12C24.7253 8.74118 24.7118 8.33213 24.6536 7.05264C24.5954 5.77507 24.3928 4.90224 24.0962 4.1399C23.789 3.35088 23.3789 2.68205 22.7121 2.01418C22.0453 1.3463 21.3754 0.936384 20.5873 0.630048C19.8235 0.333408 18.9511 0.129888 17.6746 0.072672C16.3951 0.014496 15.986 0 12.7272 0C9.4684 0 9.05906 0.013536 7.7789 0.072672Z" fill="url(#paint1_radial_17_565)"/>
</g>
<defs>
<radialGradient id="paint0_radial_17_565" cx="0" cy="0" r="1" gradientUnits="userSpaceOnUse" gradientTransform="translate(3.9148 24.1134) scale(31.33 31.33)">
<stop offset="0.09" stop-color="#FA8F21"/>
<stop offset="0.78" stop-color="#D82D7E"/>
</radialGradient>
<radialGradient id="paint1_radial_17_565" cx="0" cy="0" r="1" gradientUnits="userSpaceOnUse" gradientTransform="translate(15.2812 25.1886) scale(24.6924)">
<stop offset="0.64" stop-color="#8C3AAA" stop-opacity="0"/>
<stop offset="1" stop-color="#8C3AAA"/>
</radialGradient>
<clipPath id="clip0_17_565">
<rect width="24" height="24" fill="white" transform="translate(0.725647)"/>
</clipPath>
</defs>
</svg>
